<?xml version="1.0" encoding="UTF-8" standalone="no"?><!DOCTYPE svg PUBLIC "-//W3C//DTD SVG 1.1//EN" "http://www.w3.org/Graphics/SVG/1.1/DTD/svg11.dtd"><svg width="100%" height="100%" viewBox="0 0 2845 2845" version="1.1" xmlns="http://www.w3.org/2000/svg" xmlns:xlink="http://www.w3.org/1999/xlink" xml:space="preserve" style="fill-rule:evenodd;clip-rule:evenodd;stroke-linecap:round;stroke-linejoin:round;stroke-miterlimit:1.5;"><rect id="Artboard1" x="0" y="0" width="2844.44" height="2844.44" style="fill:none;"/><g><circle cx="1422.56" cy="1422.22" r="783.333" style="fill:#1e88e5;"/><g><circle cx="1422.56" cy="2463.58" r="166.667" style="fill:#fec107;"/><path d="M1239.23,2358.02c6.085,-14.048 27.452,-52.408 88.889,-83.333c-32.275,-36.826 -87.79,-66.472 -62.312,-254.017c6.194,-45.599 -111.812,-70.726 -121.021,26.239c-8.063,179.442 21.306,235.793 94.444,311.111Z" style="fill:#fec107;"/><path d="M1604.6,2358.02c-6.085,-14.048 -27.452,-52.408 -88.889,-83.333c32.275,-36.826 87.791,-66.472 62.312,-254.017c-6.194,-45.599 111.812,-70.726 121.022,26.239c8.062,179.442 -21.307,235.793 -94.445,311.111Z" style="fill:#fec107;"/><path d="M1160.16,2530.24c52.043,258.267 455.637,276.343 523.517,0" style="fill:none;stroke:#1e88e5;stroke-width:114.35px;"/></g><g><path d="M355.424,854.847c-43.247,81.185 -12.445,182.209 68.74,225.455c81.186,43.247 182.209,12.446 225.456,-68.74c43.247,-81.186 12.445,-182.209 -68.74,-225.456c-81.186,-43.247 -182.209,-12.445 -225.456,68.741Z" style="fill:#fec107;"/><path d="M681.878,821.023c9.538,11.975 33.348,48.868 31.758,117.631c47.676,-11.172 99.942,-46.231 253.488,64.429c37.333,26.905 114.99,-65.432 33.739,-119.148c-154.583,-91.48 -218.124,-92.052 -318.985,-62.912Z" style="fill:#fec107;"/><path d="M510.099,1143.5c15.26,1.234 59.162,0.41 115.34,-39.273c17.329,45.799 17.394,108.734 194.897,174.42c43.157,15.971 9.855,131.936 -80.056,94.476c-162.164,-77.248 -198.091,-129.661 -230.181,-229.623Z" style="fill:#fec107;"/><path d="M567.052,670.265c-252.411,-75.49 -458.113,272.219 -246.13,462.05" style="fill:none;stroke:#1e88e5;stroke-width:114.35px;"/></g><g><path d="M2473.01,826.803c-45.295,-80.06 -147.069,-108.285 -227.129,-62.989c-80.061,45.296 -108.285,147.069 -62.99,227.13c45.296,80.06 147.069,108.285 227.13,62.989c80.06,-45.296 108.285,-147.069 62.989,-227.13Z" style="fill:#fec107;"/><path d="M2326.36,1120.42c-15.224,1.621 -59.132,1.913 -116.301,-36.33c-16.159,46.224 -14.625,109.141 -190.401,179.317c-42.738,17.062 -6.5,132.143 82.43,92.411c160.149,-81.344 194.732,-134.653 224.272,-235.398Z" style="fill:#fec107;"/><path d="M2146.44,802.413c-9.23,12.214 -32.096,49.7 -28.759,118.4c-47.945,-9.957 -101.084,-43.677 -251.769,70.849c-36.637,27.845 -116.616,-62.489 -36.756,-118.252c152.209,-95.379 215.715,-97.565 317.284,-70.997Z" style="fill:#fec107;"/><path d="M2515.19,1104.43c199.156,-172.471 16.151,-532.644 -257.791,-455.646" style="fill:none;stroke:#1e88e5;stroke-width:114.35px;"/></g><g><circle cx="1422.56" cy="380.866" r="166.667" style="fill:#fec107;"/><path d="M1239.23,486.421c6.085,14.049 27.452,52.408 88.889,83.334c-32.275,36.826 -87.79,66.472 -62.312,254.016c6.194,45.599 -111.812,70.727 -121.021,-26.239c-8.063,-179.442 21.306,-235.792 94.444,-311.111Z" style="fill:#fec107;"/><path d="M1604.6,486.421c-6.085,14.049 -27.452,52.408 -88.889,83.334c32.275,36.826 87.791,66.472 62.312,254.016c-6.194,45.599 111.812,70.727 121.022,-26.239c8.062,-179.442 -21.307,-235.792 -94.445,-311.111Z" style="fill:#fec107;"/><path d="M1160.16,314.199c52.043,-258.266 455.637,-276.342 523.517,0" style="fill:none;stroke:#1e88e5;stroke-width:114.35px;"/></g><g><path d="M2487.8,1990.74c-43.247,81.186 -144.27,111.988 -225.456,68.741c-81.186,-43.247 -111.987,-144.27 -68.741,-225.456c43.247,-81.185 144.27,-111.987 225.456,-68.74c81.186,43.246 111.987,144.27 68.741,225.455Z" style="fill:#fec107;"/><path d="M2333.73,1700.95c-15.26,-1.234 -59.162,-0.41 -115.34,39.274c-17.329,-45.799 -17.394,-108.735 -194.896,-174.421c-43.158,-15.971 -9.856,-131.935 80.055,-94.476c162.164,77.248 198.091,129.662 230.181,229.623Z" style="fill:#fec107;"/><path d="M2161.95,2023.42c-9.538,-11.976 -33.349,-48.869 -31.759,-117.632c-47.676,11.172 -99.942,46.232 -253.488,-64.428c-37.333,-26.906 -114.99,65.431 -33.739,119.148c154.583,91.48 218.125,92.052 318.986,62.912Z" style="fill:#fec107;"/><path d="M2522.91,1712.13c203.475,167.356 29.68,532.062 -246.13,462.051" style="fill:none;stroke:#1e88e5;stroke-width:114.35px;"/></g><g><path d="M370.185,2016.51c-45.295,-80.06 -17.071,-181.834 62.99,-227.129c80.06,-45.296 181.834,-17.072 227.129,62.989c45.296,80.061 17.071,181.834 -62.989,227.13c-80.061,45.295 -181.834,17.071 -227.13,-62.99Z" style="fill:#fec107;"/><path d="M697.393,2042.03c9.231,-12.214 32.096,-49.7 28.759,-118.4c47.945,9.956 101.084,43.676 251.769,-70.849c36.637,-27.846 116.616,62.488 36.756,118.252c-152.208,95.378 -215.715,97.565 -317.284,70.997Z" style="fill:#fec107;"/><path d="M517.476,1724.03c15.224,-1.622 59.132,-1.914 116.301,36.33c16.159,-46.225 14.625,-109.142 190.401,-179.317c42.738,-17.063 6.5,-132.143 -82.43,-92.411c-160.149,81.343 -194.732,134.653 -224.272,235.398Z" style="fill:#fec107;"/><path d="M586.435,2195.66c-250.411,81.879 -464.882,-260.491 -257.79,-455.647" style="fill:none;stroke:#1e88e5;stroke-width:114.35px;"/></g></g><g><path d="M1630.9,1704.98c0,-5.304 -4.307,-9.611 -9.611,-9.611l-397.445,0c-5.304,0 -9.611,4.307 -9.611,9.611c0,5.305 4.307,9.611 9.611,9.611l397.445,0c5.304,0 9.611,-4.306 9.611,-9.611Z" style="fill:#ebebeb;"/><path d="M1615.13,1725.41c8.703,0.001 15.767,7.065 15.767,15.766l0,195.74c0,8.702 -7.065,15.767 -15.767,15.767l-385.133,0c-8.702,0 -15.767,-7.065 -15.767,-15.767l0,-195.74c0,-8.701 7.064,-15.765 15.767,-15.766l385.133,0Zm-101.149,199.051l0,-30.472l-182.836,0l0,30.472l182.836,0Zm-182.836,-45.709l0,-30.472l-60.945,0l0,30.472l60.945,0Zm60.945,0l0,-30.472l-45.708,0l0,30.472l45.708,0Zm45.71,0l0,-30.472l-30.473,0l0,30.472l30.473,0Zm60.945,0l0,-30.472l-45.709,0l0,30.472l45.709,0Zm76.182,0l0,-30.472l-60.946,0l0,30.472l60.946,0Zm-259.018,-45.709l0,-30.472l-45.709,0l0,30.472l45.709,0Zm259.018,0l0,-30.472l-45.709,0l0,30.472l45.709,0Zm-60.946,0l0,-30.472l-30.472,0l0,30.472l30.472,0Zm-152.363,0l0,-30.472l-30.473,0l0,30.472l30.473,0Zm60.945,0l0,-30.472l-45.709,0l0,30.472l45.709,0Zm45.709,0l0,-30.472l-30.472,0l0,30.472l30.472,0Zm-167.599,-45.708l0,-30.473l-30.473,0l0,30.473l30.473,0Zm45.709,0l0,-30.473l-30.473,0l0,30.473l30.473,0Zm45.709,-0.001l0,-30.472l-30.473,0l0,30.472l30.473,0Zm45.709,0l0,-30.472l-30.473,0l0,30.472l30.473,0Zm45.709,0l0,-30.472l-30.473,0l0,30.472l30.473,0Zm91.418,0l0,-30.472l-76.182,0l0,30.472l76.182,0Z" style="fill:#ebebeb;"/></g></svg>